<?xml version="1.0" encoding="UTF-8" standalone="no"?>
<svg
   xmlns:dc="http://purl.org/dc/elements/1.1/"
   xmlns:cc="http://creativecommons.org/ns#"
   xmlns:rdf="http://www.w3.org/1999/02/22-rdf-syntax-ns#"
   xmlns:svg="http://www.w3.org/2000/svg"
   xmlns="http://www.w3.org/2000/svg"
   xmlns:sodipodi="http://sodipodi.sourceforge.net/DTD/sodipodi-0.dtd"
   xmlns:inkscape="http://www.inkscape.org/namespaces/inkscape"
   width="282.77594"
   height="77.595161"
   viewBox="0 0 226.22074 62.076127"
   id="svg3125"
   version="1.1"
   inkscape:version="0.92.3 (2405546, 2018-03-11)"
   sodipodi:docname="ondics_O.svg"
   inkscape:export-filename="V:\a Marketing\Corporate Design\Logos\png\logo_ohne_claim.png"
   inkscape:export-xdpi="599.66663"
   inkscape:export-ydpi="599.66663">
  <metadata
     id="metadata3263">
    <rdf:RDF>
      <cc:Work
         rdf:about="">
        <dc:format>image/svg+xml</dc:format>
        <dc:type
           rdf:resource="http://purl.org/dc/dcmitype/StillImage" />
        <dc:title></dc:title>
      </cc:Work>
    </rdf:RDF>
  </metadata>
  <defs
     id="defs3261" />
  <sodipodi:namedview
     pagecolor="#ffffff"
     bordercolor="#666666"
     borderopacity="1"
     objecttolerance="10"
     gridtolerance="10"
     guidetolerance="10"
     inkscape:pageopacity="1"
     inkscape:pageshadow="2"
     inkscape:window-width="1853"
     inkscape:window-height="1025"
     id="namedview3259"
     showgrid="false"
     inkscape:zoom="3.78"
     inkscape:cx="104.30758"
     inkscape:cy="28.121882"
     inkscape:window-x="67"
     inkscape:window-y="27"
     inkscape:window-maximized="1"
     inkscape:current-layer="svg3125"
     inkscape:showpageshadow="true"
     showborder="true"
     fit-margin-top="5"
     fit-margin-left="5"
     fit-margin-right="5"
     fit-margin-bottom="5"
     units="px" />
  <g
     transform="matrix(0.97161885,0,0,0.97161885,29.603126,3.9999999)"
     style="fill:#014286;fill-opacity:1;fill-rule:nonzero;stroke:none"
     id="g3127">
    <path
       inkscape:connector-curvature="0"
       d="M 5.5684,38.9199 C 5.9346,37.2588 6.1035,35.5059 6.1035,33.7569 6.1035,28.332 4.2656,22.8096 0,20.2324 c 0,0 2.6973,-6.6884 2.6973,-6.6884 4.3164,1.6464 7.5605,4.6298 9.6172,8.5791 C 12.3164,22.126 17.0732,7.25097 41.2734,0 41.2754,0.006836 52.3506,0.282223 52.3525,0.283203 24.6426,5.65039 14.9111,30.208 14.9111,33.7569 c 0,0 -0.0049,0.582 -0.0049,0.582 0,0 -9.3378,4.581 -9.3378,4.581 z"
       id="path3129"
       style="fill:#014286;fill-opacity:1" />
  </g>
  <g
     transform="matrix(0.97161885,0,0,0.97161885,3.9999979,15.756587)"
     style="fill:#4d4c4a;fill-opacity:1;fill-rule:nonzero;stroke:none"
     id="g3131">
    <path
       inkscape:connector-curvature="0"
       d="m 8.80766,21.6573 c 0,7.6015 3.19724,15.2626 11.82424,15.2626 5.1865,0 8.4111,-2.7705 10.1572,-6.6318 0,0 10.2695,-5.0381 10.2695,-5.0381 C 39.793,36.0762 32.6729,43.5557 20.6319,43.5557 7.11816,43.5557 0,34.5674 0,21.6573 0,8.7471 7.23925,0 20.6319,0 c 2.1211,0 4.0937,0.2305 5.9101,0.6699 0,0 -2.5879,6.417 -2.5879,6.417 -1.0078,-0.2929 -2.1142,-0.4511 -3.3222,-0.4511 -8.3858,0 -11.82424,7.6015 -11.82424,15.0215 z"
       id="path3133"
       style="fill:#4d4c4a;fill-opacity:1" />
  </g>
</svg>
