<?xml version="1.0" encoding="UTF-8" standalone="no"?>
<svg
   xmlns:dc="http://purl.org/dc/elements/1.1/"
   xmlns:cc="http://creativecommons.org/ns#"
   xmlns:rdf="http://www.w3.org/1999/02/22-rdf-syntax-ns#"
   xmlns:svg="http://www.w3.org/2000/svg"
   xmlns="http://www.w3.org/2000/svg"
   xmlns:sodipodi="http://sodipodi.sourceforge.net/DTD/sodipodi-0.dtd"
   xmlns:inkscape="http://www.inkscape.org/namespaces/inkscape"
   width="282.77594"
   height="77.595161"
   viewBox="0 0 226.22074 62.076127"
   id="svg3125"
   version="1.1"
   inkscape:version="0.48.1 "
   sodipodi:docname="mit_inkscape_svg_objekt_coloriert_ohne_claim.svg"
   inkscape:export-filename="V:\a Marketing\Corporate Design\Logos\png\logo_ohne_claim.png"
   inkscape:export-xdpi="599.66663"
   inkscape:export-ydpi="599.66663">
  <metadata
     id="metadata3263">
    <rdf:RDF>
      <cc:Work
         rdf:about="">
        <dc:format>image/svg+xml</dc:format>
        <dc:type
           rdf:resource="http://purl.org/dc/dcmitype/StillImage" />
        <dc:title></dc:title>
      </cc:Work>
    </rdf:RDF>
  </metadata>
  <defs
     id="defs3261" />
  <sodipodi:namedview
     pagecolor="#ffffff"
     bordercolor="#666666"
     borderopacity="1"
     objecttolerance="10"
     gridtolerance="10"
     guidetolerance="10"
     inkscape:pageopacity="1"
     inkscape:pageshadow="2"
     inkscape:window-width="1154"
     inkscape:window-height="769"
     id="namedview3259"
     showgrid="false"
     inkscape:zoom="1.89"
     inkscape:cx="137.8085"
     inkscape:cy="-28.181822"
     inkscape:window-x="303"
     inkscape:window-y="26"
     inkscape:window-maximized="0"
     inkscape:current-layer="svg3125"
     inkscape:showpageshadow="true"
     showborder="true"
     fit-margin-top="5"
     fit-margin-left="5"
     fit-margin-right="5"
     fit-margin-bottom="5"
     units="px" />
  <g
     transform="matrix(0.97161885,0,0,0.97161885,29.603126,3.9999999)"
     style="fill:#014286;fill-opacity:1;fill-rule:nonzero;stroke:none"
     id="g3127">
    <path
       inkscape:connector-curvature="0"
       d="M 5.5684,38.9199 C 5.9346,37.2588 6.1035,35.5059 6.1035,33.7569 6.1035,28.332 4.2656,22.8096 0,20.2324 c 0,0 2.6973,-6.6884 2.6973,-6.6884 4.3164,1.6464 7.5605,4.6298 9.6172,8.5791 C 12.3164,22.126 17.0732,7.25097 41.2734,0 41.2754,0.006836 52.3506,0.282223 52.3525,0.283203 24.6426,5.65039 14.9111,30.208 14.9111,33.7569 c 0,0 -0.0049,0.582 -0.0049,0.582 0,0 -9.3378,4.581 -9.3378,4.581 z"
       id="path3129"
       style="fill:#014286;fill-opacity:1" />
  </g>
  <g
     transform="matrix(0.97161885,0,0,0.97161885,3.9999979,15.756587)"
     style="fill:#4d4c4a;fill-opacity:1;fill-rule:nonzero;stroke:none"
     id="g3131">
    <path
       inkscape:connector-curvature="0"
       d="m 8.80766,21.6573 c 0,7.6015 3.19724,15.2626 11.82424,15.2626 5.1865,0 8.4111,-2.7705 10.1572,-6.6318 0,0 10.2695,-5.0381 10.2695,-5.0381 C 39.793,36.0762 32.6729,43.5557 20.6319,43.5557 7.11816,43.5557 0,34.5674 0,21.6573 0,8.7471 7.23925,0 20.6319,0 c 2.1211,0 4.0937,0.2305 5.9101,0.6699 0,0 -2.5879,6.417 -2.5879,6.417 -1.0078,-0.2929 -2.1142,-0.4511 -3.3222,-0.4511 -8.3858,0 -11.82424,7.6015 -11.82424,15.0215 z"
       id="path3133"
       style="fill:#4d4c4a;fill-opacity:1" />
  </g>
  <g
     transform="matrix(0.97161885,0,0,0.97161885,52.355525,16.46004)"
     style="fill:#4d4c4a;fill-opacity:1;fill-rule:nonzero;stroke:none"
     id="g3135">
    <path
       inkscape:connector-curvature="0"
       d="M 0,42.1075 C 0,42.1075 0,9.4287 0,9.4287 2.374,5.4483 8.2978,0.0577 8.3535,0 c 0,0 2.0225,0 2.0225,0 0,0 16.0468,31.4903 16.0468,31.4903 0,0 0.1202,0 0.1202,0 0,0 0,-31.4903 0,-31.4903 0,0 8.0839,0 8.0839,0 0,0 0,42.1075 0,42.1075 0,0 -10.3154,0 -10.3154,0 0,0 -16.1074,-31.4903 -16.1074,-31.4903 0,0 -0.1201,0 -0.1201,0 0,0 0,31.4903 0,31.4903 0,0 -8.084,0 -8.084,0 z"
       id="path3137"
       style="fill:#4d4c4a;fill-opacity:1" />
  </g>
  <g
     transform="matrix(0.97161885,0,0,0.97161885,96.527261,16.46004)"
     style="fill:#4d4c4a;fill-opacity:1;fill-rule:evenodd;stroke:none"
     id="g3139">
    <path
       inkscape:connector-curvature="0"
       d="m 0,42.1075 c 0,0 11.5222,0 11.5222,0 12.91,0 24.312,-4.3438 24.312,-21.0538 C 35.8342,4.3428 24.4322,0 11.5222,0 11.5222,0 0,0 0,0 0,0 0,42.1075 0,42.1075 z M 8.4462,6.6358 c 0,0 4.705,0 4.705,0 7.058,0 13.875,5.248 13.875,14.4179 0,9.169 -6.817,14.418 -13.875,14.418 0,0 -4.705,0 -4.705,0 0,0 0,-28.8359 0,-28.8359 z"
       id="path3141"
       style="fill:#4d4c4a;fill-opacity:1" />
  </g>
  <g
     transform="matrix(0.97161885,0,0,0.97161885,138.99867,16.46004)"
     style="fill:#4d4c4a;fill-opacity:1;fill-rule:nonzero;stroke:none"
     id="g3143">
    <path
       inkscape:connector-curvature="0"
       d="m 0,42.1075 c 0,0 8.446,0 8.446,0 0,0 0,-42.1075 0,-42.1075 C 8.446,0 0,0 0,0 0,0 0,42.1075 0,42.1075 z"
       id="path3145"
       style="fill:#4d4c4a;fill-opacity:1" />
  </g>
  <g
     transform="matrix(0.97161885,0,0,0.97161885,157.1077,15.755616)"
     style="fill:#4d4c4a;fill-opacity:1;fill-rule:nonzero;stroke:none"
     id="g3147">
    <path
       inkscape:connector-curvature="0"
       d="m 0.362,8.3857 c 1.991,-1.0254 5.912,-1.75 9.23,-1.75 8.988,0 14.297,6.4551 14.297,15.0215 0,8.6269 -5.43,15.2627 -14.116,15.2627 -3.017,0 -5.912,-0.4229 -9.11,-2.2324 0,0 -0.603,7.1181 -0.603,7.1181 3.077,1.207 6.757,1.75 9.532,1.75 14.297,0 23.105,-8.084 23.105,-22.5019 C 32.697,6.8164 23.226,0 9.592,0 6.395,0 3.077,0.6035 0,1.3271 c 0,0 0.362,7.0586 0.362,7.0586 z"
       id="path3149"
       style="fill:#4d4c4a;fill-opacity:1" />
  </g>
  <g
     transform="matrix(0.97161885,0,0,0.97161885,195.72761,15.756587)"
     style="fill:#4d4c4a;fill-opacity:1;fill-rule:nonzero;stroke:none"
     id="g3151">
    <path
       inkscape:connector-curvature="0"
       d="M 24.794,1.5088 C 21.717,0.4824 18.339,0 14.719,0 7.299,0 0,3.4385 0,12.8496 c 0,13.9356 18.459,10.6172 18.459,18.6407 0,3.8007 -4.283,5.4296 -7.48,5.4296 -3.317,0 -6.636,-1.0253 -9.531,-2.5937 0,0 -0.784,7.6006 -0.784,7.6006 4.162,1.0254 6.213,1.6289 10.797,1.6289 8.507,0 15.806,-3.499 15.806,-12.7285 0,-14.1162 -18.46,-11.0401 -18.46,-18.3399 0,-4.584 3.74,-5.8515 6.637,-5.8515 2.955,0 5.911,0.664 8.566,1.8105 0,0 0.784,-6.9375 0.784,-6.9375 z"
       id="path3153"
       style="fill:#4d4c4a;fill-opacity:1" />
  </g>
</svg>
