<?xml version="1.0" encoding="UTF-8" standalone="no"?>
<svg
   xmlns:dc="http://purl.org/dc/elements/1.1/"
   xmlns:cc="http://creativecommons.org/ns#"
   xmlns:rdf="http://www.w3.org/1999/02/22-rdf-syntax-ns#"
   xmlns:svg="http://www.w3.org/2000/svg"
   xmlns="http://www.w3.org/2000/svg"
   xmlns:sodipodi="http://sodipodi.sourceforge.net/DTD/sodipodi-0.dtd"
   xmlns:inkscape="http://www.inkscape.org/namespaces/inkscape"
   width="283.86292"
   height="95.453033"
   viewBox="0 0 227.09032 76.362424"
   id="svg3125"
   version="1.1"
   inkscape:version="0.48.1 "
   sodipodi:docname="mit_inkscape_nach_svg_objekt.svg"
   inkscape:export-filename="V:\a Marketing\Corporate Design\Logos\Überarbeitung Gerrit\Freehand-von-Gerrit\format-umwandlungen\mit_inkscape_nach_png_600dpi.png"
   inkscape:export-xdpi="599.66663"
   inkscape:export-ydpi="599.66663">
  <metadata
     id="metadata3263">
    <rdf:RDF>
      <cc:Work
         rdf:about="">
        <dc:format>image/svg+xml</dc:format>
        <dc:type
           rdf:resource="http://purl.org/dc/dcmitype/StillImage" />
        <dc:title></dc:title>
      </cc:Work>
    </rdf:RDF>
  </metadata>
  <defs
     id="defs3261" />
  <sodipodi:namedview
     pagecolor="#ffffff"
     bordercolor="#666666"
     borderopacity="1"
     objecttolerance="10"
     gridtolerance="10"
     guidetolerance="10"
     inkscape:pageopacity="1"
     inkscape:pageshadow="2"
     inkscape:window-width="1154"
     inkscape:window-height="769"
     id="namedview3259"
     showgrid="false"
     inkscape:zoom="1.89"
     inkscape:cx="128.63094"
     inkscape:cy="-10.323944"
     inkscape:window-x="303"
     inkscape:window-y="26"
     inkscape:window-maximized="0"
     inkscape:current-layer="svg3125"
     inkscape:showpageshadow="true"
     showborder="true"
     fit-margin-top="5"
     fit-margin-left="5"
     fit-margin-right="5"
     fit-margin-bottom="5"
     units="px" />
  <g
     transform="matrix(0.97161885,0,0,0.97161885,30.47272,3.9999954)"
     style="fill:#014286;fill-rule:nonzero;stroke:none;fill-opacity:1"
     id="g3127">
    <path
       inkscape:connector-curvature="0"
       d="M 5.5684,38.9199 C 5.9346,37.2588 6.1035,35.5059 6.1035,33.7569 6.1035,28.332 4.2656,22.8096 0,20.2324 c 0,0 2.6973,-6.6884 2.6973,-6.6884 4.3164,1.6464 7.5605,4.6298 9.6172,8.5791 C 12.3164,22.126 17.0732,7.25097 41.2734,0 41.2754,0.006836 52.3506,0.282223 52.3525,0.283203 24.6426,5.65039 14.9111,30.208 14.9111,33.7569 c 0,0 -0.0049,0.582 -0.0049,0.582 0,0 -9.3378,4.581 -9.3378,4.581 z"
       id="path3129"
       style="fill:#014286;fill-opacity:1" />
  </g>
  <g
     transform="matrix(0.97161885,0,0,0.97161885,4.8695918,15.756583)"
     style="fill:#4d4c4a;fill-rule:nonzero;stroke:none;fill-opacity:1"
     id="g3131">
    <path
       inkscape:connector-curvature="0"
       d="m 8.80766,21.6573 c 0,7.6015 3.19724,15.2626 11.82424,15.2626 5.1865,0 8.4111,-2.7705 10.1572,-6.6318 0,0 10.2695,-5.0381 10.2695,-5.0381 C 39.793,36.0762 32.6729,43.5557 20.6319,43.5557 7.11816,43.5557 0,34.5674 0,21.6573 0,8.7471 7.23925,0 20.6319,0 c 2.1211,0 4.0937,0.2305 5.9101,0.6699 0,0 -2.5879,6.417 -2.5879,6.417 -1.0078,-0.2929 -2.1142,-0.4511 -3.3222,-0.4511 -8.3858,0 -11.82424,7.6015 -11.82424,15.0215 z"
       id="path3133"
       style="fill:#4d4c4a;fill-opacity:1" />
  </g>
  <g
     transform="matrix(0.97161885,0,0,0.97161885,53.225119,16.460036)"
     style="fill:#4d4c4a;fill-rule:nonzero;stroke:none;fill-opacity:1"
     id="g3135">
    <path
       inkscape:connector-curvature="0"
       d="M 0,42.1075 C 0,42.1075 0,9.4287 0,9.4287 2.374,5.4483 8.2978,0.0577 8.3535,0 c 0,0 2.0225,0 2.0225,0 0,0 16.0468,31.4903 16.0468,31.4903 0,0 0.1202,0 0.1202,0 0,0 0,-31.4903 0,-31.4903 0,0 8.0839,0 8.0839,0 0,0 0,42.1075 0,42.1075 0,0 -10.3154,0 -10.3154,0 0,0 -16.1074,-31.4903 -16.1074,-31.4903 0,0 -0.1201,0 -0.1201,0 0,0 0,31.4903 0,31.4903 0,0 -8.084,0 -8.084,0 z"
       id="path3137"
       style="fill:#4d4c4a;fill-opacity:1" />
  </g>
  <g
     transform="matrix(0.97161885,0,0,0.97161885,97.396855,16.460036)"
     style="fill:#4d4c4a;fill-rule:evenodd;stroke:none;fill-opacity:1"
     id="g3139">
    <path
       inkscape:connector-curvature="0"
       d="m 0,42.1075 c 0,0 11.5222,0 11.5222,0 12.91,0 24.312,-4.3438 24.312,-21.0538 C 35.8342,4.3428 24.4322,0 11.5222,0 11.5222,0 0,0 0,0 0,0 0,42.1075 0,42.1075 z M 8.4462,6.6358 c 0,0 4.705,0 4.705,0 7.058,0 13.875,5.248 13.875,14.4179 0,9.169 -6.817,14.418 -13.875,14.418 0,0 -4.705,0 -4.705,0 0,0 0,-28.8359 0,-28.8359 z"
       id="path3141"
       style="fill:#4d4c4a;fill-opacity:1" />
  </g>
  <g
     transform="matrix(0.97161885,0,0,0.97161885,139.86826,16.460036)"
     style="fill:#4d4c4a;fill-rule:nonzero;stroke:none;fill-opacity:1"
     id="g3143">
    <path
       inkscape:connector-curvature="0"
       d="m 0,42.1075 c 0,0 8.446,0 8.446,0 0,0 0,-42.1075 0,-42.1075 C 8.446,0 0,0 0,0 0,0 0,42.1075 0,42.1075 z"
       id="path3145"
       style="fill:#4d4c4a;fill-opacity:1" />
  </g>
  <g
     transform="matrix(0.97161885,0,0,0.97161885,157.97729,15.755612)"
     style="fill:#4d4c4a;fill-rule:nonzero;stroke:none;fill-opacity:1"
     id="g3147">
    <path
       inkscape:connector-curvature="0"
       d="m 0.362,8.3857 c 1.991,-1.0254 5.912,-1.75 9.23,-1.75 8.988,0 14.297,6.4551 14.297,15.0215 0,8.6269 -5.43,15.2627 -14.116,15.2627 -3.017,0 -5.912,-0.4229 -9.11,-2.2324 0,0 -0.603,7.1181 -0.603,7.1181 3.077,1.207 6.757,1.75 9.532,1.75 14.297,0 23.105,-8.084 23.105,-22.5019 C 32.697,6.8164 23.226,0 9.592,0 6.395,0 3.077,0.6035 0,1.3271 c 0,0 0.362,7.0586 0.362,7.0586 z"
       id="path3149"
       style="fill:#4d4c4a;fill-opacity:1" />
  </g>
  <g
     transform="matrix(0.97161885,0,0,0.97161885,196.5972,15.756583)"
     style="fill:#4d4c4a;fill-rule:nonzero;stroke:none;fill-opacity:1"
     id="g3151">
    <path
       inkscape:connector-curvature="0"
       d="M 24.794,1.5088 C 21.717,0.4824 18.339,0 14.719,0 7.299,0 0,3.4385 0,12.8496 c 0,13.9356 18.459,10.6172 18.459,18.6407 0,3.8007 -4.283,5.4296 -7.48,5.4296 -3.317,0 -6.636,-1.0253 -9.531,-2.5937 0,0 -0.784,7.6006 -0.784,7.6006 4.162,1.0254 6.213,1.6289 10.797,1.6289 8.507,0 15.806,-3.499 15.806,-12.7285 0,-14.1162 -18.46,-11.0401 -18.46,-18.3399 0,-4.584 3.74,-5.8515 6.637,-5.8515 2.955,0 5.911,0.664 8.566,1.8105 0,0 0.784,-6.9375 0.784,-6.9375 z"
       id="path3153"
       style="fill:#4d4c4a;fill-opacity:1" />
  </g>
  <g
     transform="matrix(0.97161885,0,0,0.97161885,3.9999929,61.666546)"
     style="fill:#4d4c4a;fill-rule:evenodd;stroke:none;fill-opacity:1"
     id="g3155">
    <path
       inkscape:connector-curvature="0"
       d="m 4.95019,6.7334 c 0,0 -1.11816,-5.0859 -1.11816,-5.0859 0,0 -1.23731,5.0888 -1.23731,5.0888 0,0 2.35547,-0.0029 2.35547,-0.0029 z M 5.2871,8.2637 c 0,0 -3.03613,0 -3.03613,0 0,0 -0.63183,2.6191 -0.63183,2.6191 0,0 -1.61914,0 -1.61914,0 C 0,10.8828 2.95996,0 2.95996,0 c 0,0 1.7705,0 1.7705,0 0,0 2.84571,10.8828 2.84571,10.8828 0,0 -1.66993,0 -1.66993,0 0,0 -0.61914,-2.6191 -0.61914,-2.6191 z"
       id="path3157"
       style="fill:#4d4c4a;fill-opacity:1" />
  </g>
  <g
     transform="matrix(0.97161885,0,0,0.97161885,13.226485,63.694314)"
     style="fill:#4d4c4a;fill-rule:evenodd;stroke:none;fill-opacity:1"
     id="g3159">
    <path
       inkscape:connector-curvature="0"
       d="m 2.2168,4.1201 c 0.9668,0 1.4492,-0.4824 1.4492,-1.4482 0,-0.958 -0.4824,-1.4366 -1.4492,-1.4366 0,0 -0.6045,0 -0.6045,0 0,0 0,2.8848 0,2.8848 0,0 0.6045,0 0.6045,0 z M 0,0 c 0,0 2.5195,0 2.5195,0 0.8907,0 1.5733,0.2334 2.0479,0.6992 0.4746,0.4668 0.7119,1.124 0.7119,1.9727 0,0.8476 -0.2354,1.5068 -0.7061,1.9775 -0.4707,0.4707 -1.1552,0.7061 -2.0537,0.7061 0,0 -0.9072,0 -0.9072,0 0,0 0,3.4394 0,3.4394 0,0 -1.6123,0 -1.6123,0 C 0,8.7949 0,0 0,0 z"
       id="path3161"
       style="fill:#4d4c4a;fill-opacity:1" />
  </g>
  <g
     transform="matrix(0.97161885,0,0,0.97161885,20.554435,63.694314)"
     style="fill:#4d4c4a;fill-rule:evenodd;stroke:none;fill-opacity:1"
     id="g3163">
    <path
       inkscape:connector-curvature="0"
       d="m 2.2178,4.1201 c 0.9658,0 1.4482,-0.4824 1.4482,-1.4482 0,-0.958 -0.4824,-1.4366 -1.4482,-1.4366 0,0 -0.6055,0 -0.6055,0 0,0 0,2.8848 0,2.8848 0,0 0.6055,0 0.6055,0 z M 0,0 c 0,0 2.5195,0 2.5195,0 0.8906,0 1.5733,0.2334 2.0479,0.6992 0.4746,0.4668 0.7119,1.124 0.7119,1.9727 0,0.8476 -0.2354,1.5068 -0.7061,1.9775 -0.4697,0.4707 -1.1543,0.7061 -2.0537,0.7061 0,0 -0.9072,0 -0.9072,0 0,0 0,3.4394 0,3.4394 0,0 -1.6123,0 -1.6123,0 C 0,8.7949 0,0 0,0 z"
       id="path3165"
       style="fill:#4d4c4a;fill-opacity:1" />
  </g>
  <g
     transform="matrix(0.97161885,0,0,0.97161885,27.650167,63.57189)"
     style="fill:#4d4c4a;fill-rule:nonzero;stroke:none;fill-opacity:1"
     id="g3167">
    <path
       inkscape:connector-curvature="0"
       d="m 0.2012,7.2197 c 0.2773,0.1768 0.5879,0.3106 0.9326,0.4034 0.3447,0.0927 0.6553,0.1386 0.9326,0.1386 0.3858,0 0.7051,-0.1074 0.9571,-0.3213 C 3.2754,7.2266 3.4014,6.9092 3.4014,6.4893 3.4014,6.1865 3.3174,5.9473 3.1494,5.7705 2.9815,5.5947 2.6836,5.3887 2.2549,5.1533 c 0,0 -0.8184,-0.4531 -0.8184,-0.4531 C 0.9746,4.4483 0.6192,4.1367 0.3711,3.7676 0.124,3.3975 0,2.9404 0,2.3945 0,1.6387 0.2666,1.0498 0.7998,0.6299 1.333,0.21 1.9903,0 2.7715,0 c 0.4033,0 0.7227,0.0274 0.958,0.082 0.2354,0.0547 0.5293,0.1329 0.8819,0.2334 0,0 -0.0752,1.3477 -0.0752,1.3477 C 4.25,1.5547 3.9815,1.4639 3.7295,1.3926 3.4776,1.3213 3.1963,1.2852 2.8848,1.2852 2.499,1.2852 2.1983,1.3799 1.9844,1.5694 1.7705,1.7578 1.6631,2.0078 1.6631,2.3184 c 0,0.2939 0.0752,0.5185 0.2266,0.6748 0.1513,0.1553 0.3867,0.3252 0.706,0.5097 0,0 0.9444,0.5293 0.9444,0.5293 0.5468,0.3106 0.9365,0.6358 1.1718,0.9766 0.2354,0.3399 0.3536,0.8037 0.3536,1.3926 0,0.8564 -0.2715,1.5117 -0.8135,1.9648 -0.541,0.4541 -1.253,0.6807 -2.1358,0.6807 -0.8984,0 -1.5664,-0.1299 -2.0029,-0.3906 0,0 0.0879,-1.4366 0.0879,-1.4366 z"
       id="path3169"
       style="fill:#4d4c4a;fill-opacity:1" />
  </g>
  <g
     transform="matrix(0.97161885,0,0,0.97161885,39.15122,63.694314)"
     style="fill:#4d4c4a;fill-rule:nonzero;stroke:none;fill-opacity:1"
     id="g3171">
    <path
       inkscape:connector-curvature="0"
       d="m 1.6123,0 c 0,0 0,5.6953 0,5.6953 0,0.7139 0.1094,1.2158 0.3282,1.5059 0.2177,0.29 0.5713,0.4345 1.0576,0.4345 0.4795,0 0.8281,-0.1445 1.0459,-0.4345 0.2187,-0.2901 0.3281,-0.792 0.3281,-1.5059 0,0 0,-5.6953 0,-5.6953 0,0 1.6123,0 1.6123,0 0,0 0,5.6953 0,5.6953 0,1.1006 -0.2744,1.9131 -0.8252,2.4385 C 4.6094,8.6582 3.8887,8.9209 2.9981,8.9209 2.1084,8.9209 1.3858,8.6562 0.8311,8.1269 0.2774,7.5977 0,6.7871 0,5.6953 0,5.6953 0,0 0,0 0,0 1.6123,0 1.6123,0 z"
       id="path3173"
       style="fill:#4d4c4a;fill-opacity:1" />
  </g>
  <g
     transform="matrix(0.97161885,0,0,0.97161885,47.679118,63.694314)"
     style="fill:#4d4c4a;fill-rule:nonzero;stroke:none;fill-opacity:1"
     id="g3175">
    <path
       inkscape:connector-curvature="0"
       d="m 0,0 c 0,0 1.915,0 1.915,0 0,0 2.9229,6.9053 2.9229,6.9053 0,0 0.0254,-6.9053 0.0254,-6.9053 0,0 1.4619,0 1.4619,0 0,0 0,8.7949 0,8.7949 0,0 -1.9199,-0.0029 -1.9199,-0.0029 0,0 -2.919,-6.8623 -2.919,-6.8623 0,0 -0.0254,6.8652 -0.0254,6.8652 0,0 -1.4609,0 -1.4609,0 C 0,8.7949 0,0 0,0 z"
       id="path3177"
       style="fill:#4d4c4a;fill-opacity:1" />
  </g>
  <g
     transform="matrix(0.97161885,0,0,0.97161885,56.540282,63.694314)"
     style="fill:#4d4c4a;fill-rule:evenodd;stroke:none;fill-opacity:1"
     id="g3179">
    <path
       inkscape:connector-curvature="0"
       d="M 0,0 C 0,0 2.293,0 2.293,0 3.6709,0 4.7158,0.3701 5.4307,1.1094 6.1445,1.8486 6.501,2.9443 6.501,4.3975 6.501,5.8252 6.1172,6.915 5.3486,7.667 4.5801,8.4189 3.5615,8.7949 2.293,8.7949 c 0,0 -2.293,0 -2.293,0 C 0,8.7949 0,0 0,0 z m 1.6123,7.5605 c 0,0 0.542,0 0.542,0 0.8818,0 1.541,-0.2793 1.9785,-0.8378 0.4365,-0.5586 0.6553,-1.334 0.6553,-2.3252 0,-1 -0.2168,-1.7764 -0.6494,-2.3311 C 3.7061,1.5127 3.0449,1.2353 2.1543,1.2353 c 0,0 -0.542,0 -0.542,0 0,0 0,6.3252 0,6.3252 z"
       id="path3181"
       style="fill:#4d4c4a;fill-opacity:1" />
  </g>
  <g
     transform="matrix(0.97161885,0,0,0.97161885,68.741872,61.665574)"
     style="fill:#4d4c4a;fill-rule:nonzero;stroke:none;fill-opacity:1"
     id="g3183">
    <path
       inkscape:connector-curvature="0"
       d="m 5.0899,1.5889 c 0,0 -1.4102,9.2949 -1.4102,9.2949 0,0 -1.9033,0 -1.9033,0 C 1.7764,10.8838 0,0.001 0,0.001 0,0.001 1.5166,0 1.5166,0 c 0,0 1.2246,8.8526 1.2246,8.8526 0,0 1.3506,-8.8526 1.3506,-8.8526 0,0 1.9649,0.002 1.9649,0.002 0,0 1.3105,8.8721 1.3105,8.8721 0,0 1.3096,-8.8741 1.3096,-8.8741 0,0 1.4658,0.001 1.4658,0.001 0,0 -1.8135,10.8828 -1.8135,10.8828 0,0 -1.9287,0 -1.9287,0 0,0 -1.3105,-9.2949 -1.3105,-9.2949 z"
       id="path3185"
       style="fill:#4d4c4a;fill-opacity:1" />
  </g>
  <g
     transform="matrix(0.97161885,0,0,0.97161885,80.648089,63.694314)"
     style="fill:#4d4c4a;fill-rule:nonzero;stroke:none;fill-opacity:1"
     id="g3187">
    <path
       inkscape:connector-curvature="0"
       d="m 0,0 c 0,0 4.624,0 4.624,0 0,0 0,1.2852 0,1.2852 0,0 -3.0117,0 -3.0117,0 0,0 0,2.3437 0,2.3437 0,0 2.8477,0 2.8477,0 0,0 0,1.2852 0,1.2852 0,0 -2.8477,0 -2.8477,0 0,0 0,2.5957 0,2.5957 0,0 3.1377,0 3.1377,0 0,0 0,1.2851 0,1.2851 0,0 -4.75,0 -4.75,0 C 0,8.7949 0,0 0,0 z"
       id="path3189"
       style="fill:#4d4c4a;fill-opacity:1" />
  </g>
  <g
     transform="matrix(0.97161885,0,0,0.97161885,87.747708,63.694314)"
     style="fill:#4d4c4a;fill-rule:evenodd;stroke:none;fill-opacity:1"
     id="g3191">
    <path
       inkscape:connector-curvature="0"
       d="m 1.5625,3.6797 c 0,0 0.8321,0 0.8321,0 0.3945,0 0.7031,-0.124 0.9258,-0.3721 C 3.543,3.0596 3.6543,2.7471 3.6543,2.3691 3.6543,1.999 3.5362,1.71 3.3018,1.5 3.0664,1.29 2.751,1.1846 2.3565,1.1846 c 0,0 -0.794,0 -0.794,0 0,0 0,2.4951 0,2.4951 z m 0,3.8808 c 0,0 0.8946,0 0.8946,0 0.4287,0 0.7607,-0.122 0.9951,-0.3662 C 3.6875,6.9512 3.8057,6.623 3.8057,6.2119 3.8057,5.8008 3.6924,5.4727 3.4649,5.2295 3.2383,4.9853 2.8858,4.8633 2.4063,4.8633 c 0,0 -0.8438,0 -0.8438,0 0,0 0,2.6972 0,2.6972 z M 0,0 c 0,0 2.5704,0 2.5704,0 0.916,0 1.5859,0.1748 2.0097,0.5234 0.4248,0.3487 0.6367,0.8965 0.6367,1.6436 0,0.6221 -0.1367,1.0752 -0.4101,1.3613 -0.2725,0.2852 -0.6231,0.5078 -1.0518,0.668 0.5967,0.1504 1.0225,0.415 1.2793,0.793 0.2559,0.3789 0.3838,0.8232 0.3838,1.3359 0,0.7812 -0.2519,1.3887 -0.7558,1.8213 -0.504,0.4326 -1.1631,0.6484 -1.9786,0.6484 0,0 -2.6836,0 -2.6836,0 C 0,8.7949 0,0 0,0 z"
       id="path3193"
       style="fill:#4d4c4a;fill-opacity:1" />
  </g>
  <g
     transform="matrix(0.97161885,0,0,0.97161885,95.226258,63.57189)"
     style="fill:#4d4c4a;fill-rule:nonzero;stroke:none;fill-opacity:1"
     id="g3195">
    <path
       inkscape:connector-curvature="0"
       d="m 0.2012,7.2197 c 0.2773,0.1768 0.5879,0.3106 0.9326,0.4034 0.3447,0.0927 0.6553,0.1386 0.9326,0.1386 0.3858,0 0.7051,-0.1074 0.9571,-0.3213 C 3.2754,7.2266 3.4014,6.9092 3.4014,6.4893 3.4014,6.1865 3.3174,5.9473 3.1494,5.7705 2.9815,5.5947 2.6836,5.3887 2.2549,5.1533 c 0,0 -0.8183,-0.4531 -0.8183,-0.4531 C 0.9746,4.4483 0.6192,4.1367 0.3711,3.7676 0.1241,3.3975 0,2.9404 0,2.3945 0,1.6387 0.2666,1.0498 0.7998,0.6299 1.333,0.21 1.9903,0 2.7715,0 c 0.4033,0 0.7227,0.0274 0.958,0.082 0.2354,0.0547 0.5293,0.1329 0.8819,0.2334 0,0 -0.0752,1.3477 -0.0752,1.3477 C 4.25,1.5547 3.9815,1.4639 3.7295,1.3926 3.4776,1.3213 3.1963,1.2852 2.8848,1.2852 c -0.3857,0 -0.6865,0.0947 -0.9004,0.2842 -0.2139,0.1884 -0.3213,0.4384 -0.3213,0.749 0,0.2939 0.0752,0.5185 0.2266,0.6748 0.1513,0.1553 0.3867,0.3252 0.706,0.5097 0,0 0.9444,0.5293 0.9444,0.5293 0.5468,0.3106 0.9365,0.6358 1.1718,0.9766 0.2354,0.3399 0.3536,0.8037 0.3536,1.3926 0,0.8564 -0.2715,1.5117 -0.8135,1.9648 -0.541,0.4541 -1.2529,0.6807 -2.1358,0.6807 -0.8984,0 -1.5664,-0.1299 -2.0029,-0.3906 0,0 0.0879,-1.4366 0.0879,-1.4366 z"
       id="path3197"
       style="fill:#4d4c4a;fill-opacity:1" />
  </g>
  <g
     transform="matrix(0.97161885,0,0,0.97161885,106.80018,63.694314)"
     style="fill:#4d4c4a;fill-rule:nonzero;stroke:none;fill-opacity:1"
     id="g3199">
    <path
       inkscape:connector-curvature="0"
       d="m 0,0 c 0,0 4.448,0 4.448,0 0,0 0,1.2852 0,1.2852 0,0 -2.835,0 -2.835,0 0,0 0,2.3945 0,2.3945 0,0 2.709,0 2.709,0 0,0 0,1.2851 0,1.2851 0,0 -2.709,0 -2.709,0 0,0 0,3.8301 0,3.8301 0,0 -1.613,0 -1.613,0 C 0,8.7949 0,0 0,0 z"
       id="path3201"
       style="fill:#4d4c4a;fill-opacity:1" />
  </g>
  <g
     transform="matrix(0.97161885,0,0,0.97161885,113.37124,61.564526)"
     style="fill:#4d4c4a;fill-rule:evenodd;stroke:none;fill-opacity:1"
     id="g3203">
    <path
       inkscape:connector-curvature="0"
       d="m 1.613,2.1924 c 0,0 0,5.6953 0,5.6953 0,0.7139 0.109,1.2158 0.328,1.5059 0.217,0.29 0.571,0.4345 1.058,0.4345 0.479,0 0.827,-0.1445 1.045,-0.4345 0.219,-0.2901 0.328,-0.792 0.328,-1.5059 0,0 0,-5.6953 0,-5.6953 0,0 1.613,0 1.613,0 0,0 0,5.6953 0,5.6953 0,1.1006 -0.275,1.9131 -0.826,2.4385 -0.549,0.5244 -1.27,0.7871 -2.16,0.7871 -0.89,0 -1.613,-0.2647 -2.168,-0.794 C 0.278,9.7901 0,8.9795 0,7.8877 c 0,0 0,-5.6953 0,-5.6953 0,0 1.613,0 1.613,0 z M 1.335,0 c 0,0 1.21,0 1.21,0 0,0 0,1.3858 0,1.3858 0,0 -1.21,0 -1.21,0 0,0 0,-1.3858 0,-1.3858 z m 2.117,0 c 0,0 1.21,0 1.21,0 0,0 0,1.3858 0,1.3858 0,0 -1.21,0 -1.21,0 0,0 0,-1.3858 0,-1.3858 z"
       id="path3205"
       style="fill:#4d4c4a;fill-opacity:1" />
  </g>
  <g
     transform="matrix(0.97161885,0,0,0.97161885,121.83793,63.694314)"
     style="fill:#4d4c4a;fill-rule:evenodd;stroke:none;fill-opacity:1"
     id="g3207">
    <path
       inkscape:connector-curvature="0"
       d="m 0,0 c 0,0 2.747,0 2.747,0 0.807,0 1.444,0.1934 1.915,0.5801 0.471,0.3857 0.706,0.9658 0.706,1.7383 0,0.5625 -0.156,1.0293 -0.467,1.3984 -0.31,0.3701 -0.722,0.5928 -1.234,0.668 0.218,0.0586 0.403,0.1572 0.554,0.2959 0.151,0.1386 0.29,0.3925 0.416,0.7627 0,0 1.146,3.3515 1.146,3.3515 0,0 -1.713,0 -1.713,0 0,0 -0.87,-2.8603 -0.87,-2.8603 C 3.1,5.5986 2.948,5.3613 2.747,5.2227 2.545,5.084 2.289,5.0146 1.979,5.0146 c 0,0 -0.366,0 -0.366,0 0,0 0,3.7803 0,3.7803 0,0 -1.613,0 -1.613,0 C 0,8.7949 0,0 0,0 z m 2.269,3.8301 c 0.436,0 0.785,-0.1133 1.046,-0.3399 C 3.574,3.2637 3.704,2.9316 3.704,2.4951 3.704,2.0166 3.587,1.6865 3.352,1.5059 3.116,1.3252 2.756,1.2353 2.269,1.2353 c 0,0 -0.656,0 -0.656,0 0,0 0,2.5948 0,2.5948 0,0 0.656,0 0.656,0 z"
       id="path3209"
       style="fill:#4d4c4a;fill-opacity:1" />
  </g>
  <g
     transform="matrix(0.97161885,0,0,0.97161885,133.87531,61.666546)"
     style="fill:#014286;fill-rule:nonzero;stroke:none;fill-opacity:1"
     id="g3211">
    <path
       inkscape:connector-curvature="0"
       d="m 0,0 c 0,0 1.613,0 1.613,0 0,0 0,10.8828 0,10.8828 0,0 -1.613,0 -1.613,0 C 0,10.8828 0,0 0,0 z"
       id="path3213"
       style="fill:#014286;fill-opacity:1" />
  </g>
  <g
     transform="matrix(0.97161885,0,0,0.97161885,138.25829,63.694314)"
     style="fill:#014286;fill-rule:nonzero;stroke:none;fill-opacity:1"
     id="g3215">
    <path
       inkscape:connector-curvature="0"
       d="m 0,0 c 0,0 1.613,0 1.613,0 0,0 0,3.5791 0,3.5791 0,0 2.608,0 2.608,0 0,0 0,-3.5791 0,-3.5791 0,0 1.613,0 1.613,0 0,0 0,8.7949 0,8.7949 0,0 -1.613,0 -1.613,0 0,0 0,-3.8808 0,-3.8808 0,0 -2.608,0 -2.608,0 0,0 0,3.8808 0,3.8808 0,0 -1.613,0 -1.613,0 C 0,8.7949 0,0 0,0 z"
       id="path3217"
       style="fill:#014286;fill-opacity:1" />
  </g>
  <g
     transform="matrix(0.97161885,0,0,0.97161885,146.6521,63.694314)"
     style="fill:#014286;fill-rule:evenodd;stroke:none;fill-opacity:1"
     id="g3219">
    <path
       inkscape:connector-curvature="0"
       d="m 0,0 c 0,0 2.747,0 2.747,0 0.806,0 1.445,0.1934 1.915,0.5801 0.47,0.3857 0.705,0.9658 0.705,1.7383 0,0.5625 -0.155,1.0293 -0.465,1.3984 -0.311,0.3701 -0.723,0.5928 -1.235,0.668 0.218,0.0586 0.402,0.1572 0.554,0.2959 0.151,0.1386 0.29,0.3925 0.416,0.7627 0,0 1.146,3.3515 1.146,3.3515 0,0 -1.714,0 -1.714,0 0,0 -0.869,-2.8603 -0.869,-2.8603 C 3.1,5.5986 2.948,5.3613 2.747,5.2227 2.545,5.084 2.289,5.0146 1.979,5.0146 c 0,0 -0.367,0 -0.367,0 0,0 0,3.7803 0,3.7803 0,0 -1.612,0 -1.612,0 C 0,8.7949 0,0 0,0 z m 2.268,3.8301 c 0.437,0 0.786,-0.1133 1.046,-0.3399 C 3.574,3.2637 3.704,2.9316 3.704,2.4951 3.704,2.0166 3.587,1.6865 3.352,1.5059 3.116,1.3252 2.755,1.2353 2.268,1.2353 c 0,0 -0.656,0 -0.656,0 0,0 0,2.5948 0,2.5948 0,0 0.656,0 0.656,0 z"
       id="path3221"
       style="fill:#014286;fill-opacity:1" />
  </g>
  <g
     transform="matrix(0.97161885,0,0,0.97161885,154.50861,63.694314)"
     style="fill:#014286;fill-rule:nonzero;stroke:none;fill-opacity:1"
     id="g3223">
    <path
       inkscape:connector-curvature="0"
       d="m 0,0 c 0,0 4.625,0 4.625,0 0,0 0,1.2852 0,1.2852 0,0 -3.012,0 -3.012,0 0,0 0,2.3437 0,2.3437 0,0 2.848,0 2.848,0 0,0 0,1.2852 0,1.2852 0,0 -2.848,0 -2.848,0 0,0 0,2.5957 0,2.5957 0,0 3.138,0 3.138,0 0,0 0,1.2851 0,1.2851 0,0 -4.751,0 -4.751,0 C 0,8.7949 0,0 0,0 z"
       id="path3225"
       style="fill:#014286;fill-opacity:1" />
  </g>
  <g
     transform="matrix(0.97161885,0,0,0.97161885,165.70457,61.666546)"
     style="fill:#4d4c4a;fill-rule:evenodd;stroke:none;fill-opacity:1"
     id="g3227">
    <path
       inkscape:connector-curvature="0"
       d="m 2.226,5.0986 c 0.971,0 1.455,-0.5976 1.455,-1.7929 0,-1.1856 -0.484,-1.7774 -1.455,-1.7774 0,0 -0.607,0 -0.607,0 0,0 0,3.5703 0,3.5703 0,0 0.607,0 0.607,0 z M 0,0 C 0,0 2.53,0 2.53,0 3.424,0 4.11,0.2881 4.586,0.8652 5.063,1.4424 5.301,2.2559 5.301,3.3057 5.301,4.3555 5.065,5.1709 4.592,5.7529 4.121,6.335 3.433,6.626 2.53,6.626 c 0,0 -0.911,0 -0.911,0 0,0 0,4.2568 0,4.2568 0,0 -1.619,0 -1.619,0 C 0,10.8828 0,0 0,0 z"
       id="path3229"
       style="fill:#4d4c4a;fill-opacity:1" />
  </g>
  <g
     transform="matrix(0.97161885,0,0,0.97161885,173.03252,63.694314)"
     style="fill:#4d4c4a;fill-rule:evenodd;stroke:none;fill-opacity:1"
     id="g3231">
    <path
       inkscape:connector-curvature="0"
       d="m 0,0 c 0,0 2.747,0 2.747,0 0.806,0 1.444,0.1934 1.915,0.5801 0.47,0.3857 0.706,0.9658 0.706,1.7383 0,0.5625 -0.157,1.0293 -0.467,1.3984 C 4.59,4.0869 4.178,4.3096 3.667,4.3848 3.884,4.4434 4.07,4.542 4.22,4.6807 c 0.152,0.1386 0.29,0.3925 0.416,0.7627 0,0 1.147,3.3515 1.147,3.3515 0,0 -1.713,0 -1.713,0 0,0 -0.87,-2.8603 -0.87,-2.8603 C 3.099,5.5986 2.948,5.3613 2.747,5.2227 2.544,5.084 2.289,5.0146 1.978,5.0146 c 0,0 -0.365,0 -0.365,0 0,0 0,3.7803 0,3.7803 0,0 -1.613,0 -1.613,0 C 0,8.7949 0,0 0,0 z m 2.268,3.8301 c 0.437,0 0.785,-0.1133 1.045,-0.3399 C 3.574,3.2637 3.704,2.9316 3.704,2.4951 3.704,2.0166 3.586,1.6865 3.351,1.5059 3.116,1.3252 2.754,1.2353 2.268,1.2353 c 0,0 -0.655,0 -0.655,0 0,0 0,2.5948 0,2.5948 0,0 0.655,0 0.655,0 z"
       id="path3233"
       style="fill:#4d4c4a;fill-opacity:1" />
  </g>
  <g
     transform="matrix(0.97161885,0,0,0.97161885,180.54605,63.57189)"
     style="fill:#4d4c4a;fill-rule:evenodd;stroke:none;fill-opacity:1"
     id="g3235">
    <path
       inkscape:connector-curvature="0"
       d="m 3.503,7.8125 c 0.555,0 1,-0.2627 1.336,-0.7881 C 5.175,6.5 5.343,5.666 5.343,4.5235 5.343,3.3809 5.175,2.5479 4.839,2.0225 4.503,1.4971 4.058,1.2354 3.503,1.2354 2.949,1.2354 2.504,1.4971 2.168,2.0225 1.832,2.5479 1.664,3.3809 1.664,4.5235 1.664,5.666 1.832,6.5 2.168,7.0244 2.504,7.5498 2.949,7.8125 3.503,7.8125 z M 3.503,0 C 4.494,0 5.326,0.3799 5.998,1.1406 6.67,1.9004 7.006,3.0283 7.006,4.5235 7.006,6.0186 6.67,7.1465 5.998,7.9063 5.326,8.667 4.494,9.0469 3.503,9.0469 2.512,9.0469 1.681,8.667 1.009,7.9063 0.337,7.1465 0,6.0186 0,4.5235 0,3.0283 0.337,1.9004 1.009,1.1406 1.681,0.3799 2.512,0 3.503,0 z"
       id="path3237"
       style="fill:#4d4c4a;fill-opacity:1" />
  </g>
  <g
     transform="matrix(0.97161885,0,0,0.97161885,189.34698,63.694314)"
     style="fill:#4d4c4a;fill-rule:nonzero;stroke:none;fill-opacity:1"
     id="g3239">
    <path
       inkscape:connector-curvature="0"
       d="m 0,7.3838 c 0,0 3.464,-6.0986 3.464,-6.0986 0,0 -3.364,0 -3.364,0 0,0 0,-1.2852 0,-1.2852 0,0 5.242,0 5.242,0 0,0 0,1.3359 0,1.3359 0,0 -3.503,6.1739 -3.503,6.1739 0,0 3.553,0 3.553,0 0,0 0,1.2851 0,1.2851 0,0 -5.392,0 -5.392,0 0,0 0,-1.4111 0,-1.4111 z"
       id="path3241"
       style="fill:#4d4c4a;fill-opacity:1" />
  </g>
  <g
     transform="matrix(0.97161885,0,0,0.97161885,196.912,63.694314)"
     style="fill:#4d4c4a;fill-rule:nonzero;stroke:none;fill-opacity:1"
     id="g3243">
    <path
       inkscape:connector-curvature="0"
       d="m 0,0 c 0,0 4.625,0 4.625,0 0,0 0,1.2852 0,1.2852 0,0 -3.012,0 -3.012,0 0,0 0,2.3437 0,2.3437 0,0 2.848,0 2.848,0 0,0 0,1.2852 0,1.2852 0,0 -2.848,0 -2.848,0 0,0 0,2.5957 0,2.5957 0,0 3.138,0 3.138,0 0,0 0,1.2851 0,1.2851 0,0 -4.751,0 -4.751,0 C 0,8.7949 0,0 0,0 z"
       id="path3245"
       style="fill:#4d4c4a;fill-opacity:1" />
  </g>
  <g
     transform="matrix(0.97161885,0,0,0.97161885,203.70653,63.57189)"
     style="fill:#4d4c4a;fill-rule:nonzero;stroke:none;fill-opacity:1"
     id="g3247">
    <path
       inkscape:connector-curvature="0"
       d="M 0.202,7.2197 C 0.479,7.3965 0.79,7.5303 1.134,7.6231 1.478,7.7158 1.789,7.7617 2.066,7.7617 2.453,7.7617 2.772,7.6543 3.024,7.4404 3.276,7.2266 3.402,6.9092 3.402,6.4893 3.402,6.1865 3.318,5.9473 3.15,5.7705 2.982,5.5947 2.683,5.3887 2.256,5.1533 c 0,0 -0.82,-0.4531 -0.82,-0.4531 C 0.974,4.4483 0.62,4.1367 0.372,3.7676 0.124,3.3975 0,2.9404 0,2.3945 0,1.6387 0.266,1.0498 0.801,0.6299 1.334,0.21 1.991,0 2.772,0 c 0.404,0 0.722,0.0274 0.957,0.082 0.236,0.0547 0.53,0.1329 0.883,0.2334 0,0 -0.076,1.3477 -0.076,1.3477 C 4.251,1.5547 3.981,1.4639 3.729,1.3926 3.477,1.3213 3.196,1.2852 2.886,1.2852 2.499,1.2852 2.199,1.3799 1.984,1.5694 1.77,1.7578 1.663,2.0078 1.663,2.3184 c 0,0.2939 0.076,0.5185 0.227,0.6748 0.151,0.1553 0.386,0.3252 0.706,0.5097 0,0 0.945,0.5293 0.945,0.5293 0.546,0.3106 0.936,0.6358 1.172,0.9766 0.235,0.3399 0.352,0.8037 0.352,1.3926 0,0.8564 -0.27,1.5117 -0.812,1.9648 -0.542,0.4541 -1.254,0.6807 -2.136,0.6807 -0.899,0 -1.566,-0.1299 -2.004,-0.3906 0,0 0.089,-1.4366 0.089,-1.4366 z"
       id="path3249"
       style="fill:#4d4c4a;fill-opacity:1" />
  </g>
  <g
     transform="matrix(0.97161885,0,0,0.97161885,210.80615,63.57189)"
     style="fill:#4d4c4a;fill-rule:nonzero;stroke:none;fill-opacity:1"
     id="g3251">
    <path
       inkscape:connector-curvature="0"
       d="M 0.203,7.2197 C 0.48,7.3965 0.791,7.5303 1.135,7.6231 1.479,7.7158 1.791,7.7617 2.067,7.7617 2.454,7.7617 2.773,7.6543 3.025,7.4404 3.277,7.2266 3.403,6.9092 3.403,6.4893 3.403,6.1865 3.319,5.9473 3.151,5.7705 2.983,5.5947 2.685,5.3887 2.256,5.1533 c 0,0 -0.819,-0.4531 -0.819,-0.4531 C 0.975,4.4483 0.621,4.1367 0.373,3.7676 0.124,3.3975 0,2.9404 0,2.3945 0,1.6387 0.268,1.0498 0.801,0.6299 1.334,0.21 1.992,0 2.773,0 c 0.403,0 0.723,0.0274 0.958,0.082 0.234,0.0547 0.528,0.1329 0.882,0.2334 0,0 -0.076,1.3477 -0.076,1.3477 C 4.251,1.5547 3.983,1.4639 3.731,1.3926 3.478,1.3213 3.197,1.2852 2.886,1.2852 c -0.387,0 -0.686,0.0947 -0.9,0.2842 -0.215,0.1884 -0.321,0.4384 -0.321,0.749 0,0.2939 0.075,0.5185 0.226,0.6748 0.151,0.1553 0.386,0.3252 0.705,0.5097 0,0 0.945,0.5293 0.945,0.5293 0.546,0.3106 0.937,0.6358 1.172,0.9766 0.236,0.3399 0.353,0.8037 0.353,1.3926 0,0.8564 -0.271,1.5117 -0.813,1.9648 -0.542,0.4541 -1.254,0.6807 -2.135,0.6807 -0.899,0 -1.567,-0.1299 -2.003,-0.3906 0,0 0.088,-1.4366 0.088,-1.4366 z"
       id="path3253"
       style="fill:#4d4c4a;fill-opacity:1" />
  </g>
  <g
     transform="matrix(0.97161885,0,0,0.97161885,218.21377,63.694314)"
     style="fill:#4d4c4a;fill-rule:nonzero;stroke:none;fill-opacity:1"
     id="g3255">
    <path
       inkscape:connector-curvature="0"
       d="m 0,0 c 0,0 4.624,0 4.624,0 0,0 0,1.2852 0,1.2852 0,0 -3.011,0 -3.011,0 0,0 0,2.3437 0,2.3437 0,0 2.847,0 2.847,0 0,0 0,1.2852 0,1.2852 0,0 -2.847,0 -2.847,0 0,0 0,2.5957 0,2.5957 0,0 3.137,0 3.137,0 0,0 0,1.2851 0,1.2851 0,0 -4.75,0 -4.75,0 C 0,8.7949 0,0 0,0 z"
       id="path3257"
       style="fill:#4d4c4a;fill-opacity:1" />
  </g>
</svg>
